<!-- Generated by IcoMoon.io -->
<svg version="1.1" xmlns="http://www.w3.org/2000/svg" width="768" height="768" viewBox="0 0 768 768">
<title></title>
<g id="icomoon-ignore">
</g>
<path fill="#fff" d="M349.091 244.363c-28.905 0-55.156 11.764-74.042 30.685s-30.685 45.137-30.685 74.042v314.182c0 28.905 11.764 55.156 30.685 74.042s45.137 30.685 74.042 30.685h314.182c28.905 0 55.156-11.765 74.042-30.685s30.685-45.137 30.685-74.042v-314.182c0-28.905-11.765-55.156-30.685-74.042s-45.137-30.685-74.042-30.685zM349.091 314.182h314.182c9.635 0 18.327 3.875 24.68 10.228s10.228 15.046 10.228 24.68v314.182c0 9.635-3.875 18.327-10.228 24.68s-15.046 10.228-24.68 10.228h-314.182c-9.635 0-18.327-3.875-24.68-10.228s-10.228-15.046-10.228-24.68v-314.182c0-9.635 3.875-18.327 10.228-24.68s15.046-10.228 24.68-10.228zM139.636 453.818h-34.909c-9.635 0-18.327-3.875-24.68-10.228s-10.228-15.046-10.228-24.68v-314.182c0-9.635 3.875-18.327 10.228-24.68s15.046-10.228 24.68-10.228h314.182c9.635 0 18.327 3.875 24.68 10.228s10.228 15.046 10.228 24.68v34.909c0 19.27 15.64 34.91 34.91 34.91s34.91-15.64 34.91-34.91v-34.909c0-28.905-11.764-55.156-30.685-74.042s-45.137-30.685-74.042-30.685h-314.182c-28.905 0-55.156 11.764-74.042 30.685s-30.685 45.137-30.685 74.042v314.182c0 28.905 11.764 55.156 30.685 74.042s45.137 30.685 74.042 30.685h34.91c19.27 0 34.909-15.64 34.909-34.909s-15.64-34.91-34.909-34.91z"></path>
</svg>
